# xmcd
#
# Track frame offsets:
#	187
#	13949
#	28712
#	43402
#	59117
#	73342
#	89304
#	104529
#	118212
#	130997
#	144744
#
# Disc length: 2113 seconds
# Revision: 4
# Processed by: cddbd v1.5.2PL0 Copyright (c) Steve Scherf et al.
# Submitted via: dBpowerAMP V12.0
#
DISCID=b4083f0b
DTITLE=Aaron Tippin - Tool Box
DYEAR=1995
DGENRE=Country
TTITLE0=Ten Pound Hammer
TTITLE1=That's As Close As I'll Get To Loving You
TTITLE2=A Real Nice Problem To Have
TTITLE3=Without Your Love
TTITLE4=How's The Radio Know
TTITLE5=Everything I Own
TTITLE6=I Can Help
TTITLE7=You Gotta Start Somewhere
TTITLE8=She Made A Man Out Of A Mountain Of Stone
TTITLE9=You've Always Got Me
TTITLE10=Country Boy's Tool Box
EXTD=
EXTT0=
EXTT1=
EXTT2=
EXTT3=
EXTT4=
EXTT5=
EXTT6=
EXTT7=
EXTT8=
EXTT9=
EXTT10=
PLAYORDER=
